name Walk2.mot
datacolumns 19
datarows 25
range 3.05400000 3.07800000
endheader

                time	   L_ground_force_vx	   L_ground_force_vy	   L_ground_force_vz	   L_ground_force_px	   L_ground_force_py	   L_ground_force_pz	   R_ground_force_vx	   R_ground_force_vy	   R_ground_force_vz	   R_ground_force_px	   R_ground_force_py	   R_ground_force_pz	   L_ground_torque_x	   L_ground_torque_y	   L_ground_torque_z	   R_ground_torque_x	   R_ground_torque_y	   R_ground_torque_z	
          3.05400000	          0.00000000	          0.00000000	          0.00000000	          0.00000000	          0.00000000	          0.00000000	         32.15271374	        962.32465159	         68.55726228	         -0.28987964	          0.00000000	         -0.06595105	          0.00000000	          0.00000000	          0.00000000	          0.00000000	          0.33732633	          0.00000000	
          3.05500000	          0.00000000	          0.00000000	          0.00000000	          0.00000000	          0.00000000	          0.00000000	         32.43635944	        963.22494771	         68.76793063	         -0.28951225	          0.00000000	         -0.06594078	          0.00000000	          0.00000000	          0.00000000	          0.00000000	          0.37925455	          0.00000000	
          3.05600000	          0.00000000	          0.00000000	          0.00000000	          0.00000000	          0.00000000	          0.00000000	         32.70019171	        964.07048122	         69.00022454	         -0.28914506	          0.00000000	         -0.06596852	          0.00000000	          0.00000000	          0.00000000	          0.00000000	          0.40840706	          0.00000000	
          3.05700000	          0.00000000	          0.00000000	          0.00000000	          0.00000000	          0.00000000	          0.00000000	         32.98631886	        964.86467627	         69.26067088	         -0.28877074	          0.00000000	         -0.06602299	          0.00000000	          0.00000000	          0.00000000	          0.00000000	          0.41498045	          0.00000000	
          3.05800000	          0.00000000	          0.00000000	          0.00000000	          0.00000000	          0.00000000	          0.00000000	         33.31606711	        965.60679711	         69.54991090	         -0.28837969	          0.00000000	         -0.06608213	          0.00000000	          0.00000000	          0.00000000	          0.00000000	          0.39737937	          0.00000000	
          3.05900000	          0.00000000	          0.00000000	          0.00000000	          0.00000000	          0.00000000	          0.00000000	         33.68387960	        966.30706666	         69.85124611	         -0.28797269	          0.00000000	         -0.06612421	          0.00000000	          0.00000000	          0.00000000	          0.00000000	          0.36266055	          0.00000000	
          3.06000000	          0.00000000	          0.00000000	          0.00000000	          0.00000000	          0.00000000	          0.00000000	         34.07037370	        966.97601623	         70.12953899	         -0.28756355	          0.00000000	         -0.06614516	          0.00000000	          0.00000000	          0.00000000	          0.00000000	          0.32381296	          0.00000000	
          3.06100000	          0.00000000	          0.00000000	          0.00000000	          0.00000000	          0.00000000	          0.00000000	         34.45262433	        967.63164656	         70.35158412	         -0.28716738	          0.00000000	         -0.06616234	          0.00000000	          0.00000000	          0.00000000	          0.00000000	          0.29576661	          0.00000000	
          3.06200000	          0.00000000	          0.00000000	          0.00000000	          0.00000000	          0.00000000	          0.00000000	         34.81237154	        968.30883904	         70.50633604	         -0.28678856	          0.00000000	         -0.06619677	          0.00000000	          0.00000000	          0.00000000	          0.00000000	          0.28991452	          0.00000000	
          3.06300000	          0.00000000	          0.00000000	          0.00000000	          0.00000000	          0.00000000	          0.00000000	         35.14592534	        969.02779740	         70.60843495	         -0.28641868	          0.00000000	         -0.06624934	          0.00000000	          0.00000000	          0.00000000	          0.00000000	          0.30909962	          0.00000000	
          3.06400000	          0.00000000	          0.00000000	          0.00000000	          0.00000000	          0.00000000	          0.00000000	         35.45862056	        969.76520978	         70.68756389	         -0.28604507	          0.00000000	         -0.06629785	          0.00000000	          0.00000000	          0.00000000	          0.00000000	          0.34826697	          0.00000000	
          3.06500000	          0.00000000	          0.00000000	          0.00000000	          0.00000000	          0.00000000	          0.00000000	         35.75085480	        970.48027099	         70.77275813	         -0.28566107	          0.00000000	         -0.06631992	          0.00000000	          0.00000000	          0.00000000	          0.00000000	          0.39897731	          0.00000000	
          3.06600000	          0.00000000	          0.00000000	          0.00000000	          0.00000000	          0.00000000	          0.00000000	         36.02184091	        971.15119419	         70.88037413	         -0.28526796	          0.00000000	         -0.06631803	          0.00000000	          0.00000000	          0.00000000	          0.00000000	          0.45198182	          0.00000000	
          3.06700000	          0.00000000	          0.00000000	          0.00000000	          0.00000000	          0.00000000	          0.00000000	         36.28115273	        971.77912684	         71.01107762	         -0.28487125	          0.00000000	         -0.06631891	          0.00000000	          0.00000000	          0.00000000	          0.00000000	          0.49733011	          0.00000000	
          3.06800000	          0.00000000	          0.00000000	          0.00000000	          0.00000000	          0.00000000	          0.00000000	         36.54769055	        972.38649715	         71.15637098	         -0.28448005	          0.00000000	         -0.06634683	          0.00000000	          0.00000000	          0.00000000	          0.00000000	          0.52543430	          0.00000000	
          3.06900000	          0.00000000	          0.00000000	          0.00000000	          0.00000000	          0.00000000	          0.00000000	         36.84217619	        973.01670894	         71.31037868	         -0.28410666	          0.00000000	         -0.06640247	          0.00000000	          0.00000000	          0.00000000	          0.00000000	          0.52972956	          0.00000000	
          3.07000000	          0.00000000	          0.00000000	          0.00000000	          0.00000000	          0.00000000	          0.00000000	         37.18138668	        973.71121511	         71.47613706	         -0.28375648	          0.00000000	         -0.06646494	          0.00000000	          0.00000000	          0.00000000	          0.00000000	          0.51007403	          0.00000000	
          3.07100000	          0.00000000	          0.00000000	          0.00000000	          0.00000000	          0.00000000	          0.00000000	         37.57052698	        974.48012306	         71.65655441	         -0.28341743	          0.00000000	         -0.06650567	          0.00000000	          0.00000000	          0.00000000	          0.00000000	          0.47637338	          0.00000000	
          3.07200000	          0.00000000	          0.00000000	          0.00000000	          0.00000000	          0.00000000	          0.00000000	         37.99462875	        975.30866979	         71.84017013	         -0.28306704	          0.00000000	         -0.06650590	          0.00000000	          0.00000000	          0.00000000	          0.00000000	          0.44837342	          0.00000000	
          3.07300000	          0.00000000	          0.00000000	          0.00000000	          0.00000000	          0.00000000	          0.00000000	         38.42196279	        976.18675310	         72.00219082	         -0.28269242	          0.00000000	         -0.06646904	          0.00000000	          0.00000000	          0.00000000	          0.00000000	          0.44758214	          0.00000000	
          3.07400000	          0.00000000	          0.00000000	          0.00000000	          0.00000000	          0.00000000	          0.00000000	         38.81953745	        977.10661551	         72.12497586	         -0.28229786	          0.00000000	         -0.06641512	          0.00000000	          0.00000000	          0.00000000	          0.00000000	          0.48444411	          0.00000000	
          3.07500000	          0.00000000	          0.00000000	          0.00000000	          0.00000000	          0.00000000	          0.00000000	         39.16768515	        978.03677058	         72.22080404	         -0.28189647	          0.00000000	         -0.06635986	          0.00000000	          0.00000000	          0.00000000	          0.00000000	          0.55082624	          0.00000000	
          3.07600000	          0.00000000	          0.00000000	          0.00000000	          0.00000000	          0.00000000	          0.00000000	         39.47146912	        978.93161520	         72.33021610	         -0.28150370	          0.00000000	         -0.06630156	          0.00000000	          0.00000000	          0.00000000	          0.00000000	          0.62413930	          0.00000000	
          3.07700000	          0.00000000	          0.00000000	          0.00000000	          0.00000000	          0.00000000	          0.00000000	         39.75958542	        979.78055889	         72.48987765	         -0.28113371	          0.00000000	         -0.06623335	          0.00000000	          0.00000000	          0.00000000	          0.00000000	          0.67828933	          0.00000000	
          3.07800000	          0.00000000	          0.00000000	          0.00000000	          0.00000000	          0.00000000	          0.00000000	         40.06860427	        980.62455926	         72.70018235	         -0.28079049	          0.00000000	         -0.06616236	          0.00000000	          0.00000000	          0.00000000	          0.00000000	          0.69508430	          0.00000000	
